<?xml version="1.0" encoding="utf-8"?>
<!-- Generator: Adobe Illustrator 19.0.0, SVG Export Plug-In . SVG Version: 6.00 Build 0)  -->
<svg version="1.1" xmlns="http://www.w3.org/2000/svg" xmlns:xlink="http://www.w3.org/1999/xlink" x="0px" y="0px"
	 viewBox="0 0 57.2 69.6" style="enable-background:new 0 0 57.2 69.6;" xml:space="preserve">
<style type="text/css">
	.st0{fill:#333333;stroke:#000000;stroke-miterlimit:10;}
	.st1{fill:#FFFFFF;stroke:#000000;stroke-miterlimit:10;}
	.st2{fill:#E6E6E6;stroke:#000000;stroke-miterlimit:10;}
	.st3{fill:#B3B3B3;stroke:#000000;stroke-miterlimit:10;}
	.st4{fill:#FFFFFF;stroke:#000000;stroke-width:0.75;stroke-miterlimit:10;}
	.st5{fill:#CCCCCC;stroke:#000000;stroke-width:0.5;stroke-miterlimit:10;}
	.st6{fill:#C1272D;stroke:#000000;stroke-miterlimit:10;}
</style>
<g id="Vacuum">
	<path id="XMLID_12_" class="st0" d="M53.3,63c-1.4,0.9-3.4,2.1-5.9,3.2c-5.8,2.5-16,2.9-16,2.9S16.1,69.8,7,65.8
		c-1.9-0.9-3.3-2.2-3.3-2.2c-1.2-1.1-1.8-2.1-1.9-2.4c-1.2-2.2-1.3-4.3-1.3-5.3c0-0.5,0.1-4.8,1.9-6.4c3.8-3.3,13.5,7.3,25.7,8.9
		c6.3,0.8,15.2-0.4,26.6-8.8c0.2,0.3,0.6,0.8,0.9,1.4c1.3,2.3,1.1,4.6,1,5.6c-0.1,0.7-0.2,1.9-0.8,3.3C55,61.5,53.9,62.5,53.3,63z"
		/>
	<ellipse id="XMLID_11_" class="st1" cx="28.5" cy="50.7" rx="26.4" ry="8.5"/>
	<path id="XMLID_13_" class="st2" d="M10.1,63.3c-0.5,0-2.7,0-4.6-1.6c-1.5-1.3-2-3-2.1-3.5c0.1-0.6,0.1-1.3,0.2-1.9
		C4.3,57,5.4,58,7.1,58.8c1.7,0.9,3.2,1.2,4.2,1.3C10.9,61.2,10.5,62.3,10.1,63.3z"/>
	<ellipse id="XMLID_15_" class="st3" cx="27.8" cy="49.7" rx="8" ry="2"/>
	<path id="XMLID_16_" class="st4" d="M48.7,63.7L48.7,63.7c-0.8,0.1-1.6-0.5-1.8-1.3l-0.5-2.5c-0.2-0.8,0.3-1.7,1.1-2l0,0
		c0.8-0.3,1.7,0.3,1.9,1.2l0.6,2.7C50.2,62.7,49.6,63.6,48.7,63.7z"/>
	<path id="XMLID_17_" class="st5" d="M48.1,63.4L48.1,63.4c-0.6,0.1-1.2-0.4-1.3-1.1l-0.4-2c-0.2-0.7,0.2-1.4,0.7-1.6h0
		c0.6-0.2,1.2,0.3,1.4,1l0.5,2.2C49.1,62.6,48.7,63.3,48.1,63.4z"/>
</g>
<g id="Led-Light">
	<ellipse id="XMLID_19_" class="st6" cx="16.5" cy="63" rx="1.6" ry="1.6"/>
</g>
<g id="Cat">
	<path id="XMLID_1_" d="M17.4,18.9l-3.1-0.1c-3.8-0.1-6.8-3.3-6.7-7.1v0c0.2-1,0.6-3,2.1-4.8c0.8-1,1.7-1.7,2.4-2.1
		c0.6-0.3,2-0.9,3.8-0.8c1.9,0.1,3.2,0.8,3.8,1.2c0.7,0.3,1.8,0.9,2.8,2.1c1.7,2,1.9,4.2,1.9,4.9v0C24.3,15.9,21.2,19,17.4,18.9z"/>
	<path id="XMLID_2_" d="M11.2,9.2L11.2,9.2c-0.2,0.3-0.5,0.5-0.9,0.6c-1.1,0-2-2.3-2.3-3.5C7.4,4,8,2,8.6,0.7c0-0.5,0.5-0.8,0.9-0.7
		c0.4,0.1,1.5,2.3,1.9,2.7c0.5,0.5,0.9,0.7,1.8,1.6C13.5,4.6,13.9,5,14,5.2C14.4,7.1,13.1,8.9,11.2,9.2z"/>
	<path id="XMLID_3_" d="M20.4,9.4L20.4,9.4c0.2,0.3,0.5,0.6,0.9,0.6c1.1,0.1,2.1-2.1,2.5-3.4c0.7-2.2,0.1-4.3-0.4-5.6
		c0-0.5-0.4-0.8-0.8-0.8c-0.4,0.1-1.6,2.3-2,2.6c-0.5,0.5-1,0.7-1.9,1.5c-0.4,0.3-0.7,0.6-0.9,0.8C17.4,7.1,18.5,9,20.4,9.4z"/>
	<path id="XMLID_4_" d="M21.4,27.3c-2.4,2.2-4,3-6.8,5.2c-1.6,1.2-3.9,3.1-6.5,5.8c-0.9-3.5-1.8-7.1-2.7-10.6
		c-0.1-1.9,0-5.3,1.8-8.8c0.6-1.2,1.3-2.1,2-2.9c3.2-0.1,6.4-0.2,9.5-0.4c0.4-0.1,2.8-0.3,4.8,1.3c2.6,2,2.4,5.2,2.4,5.5
		C24.9,23.6,23.4,25.4,21.4,27.3z"/>
	<path id="XMLID_5_" d="M20.3,21.2l4.7,0.1c1.1,0,3,0,5,1.1c2.7,1.4,3.8,3.8,4.7,5.6c0.6,1.2,1.3,3.1,1.6,5.7
		c0.3,1.3,0.5,3.3,0.1,5.8c-0.3,1.6-0.7,2.9-1.2,3.9c-0.5,0.9-1.3,1.9-2.4,2.9c-3.2,2.9-7.1,3.3-8.6,3.3l-4.7-0.1
		C13,49.3,7.8,43.8,7.9,37.2L8,32.9C8.2,26.3,13.7,21,20.3,21.2z"/>
	<path id="XMLID_6_" d="M10.2,52.2c-0.4,0.1-1.9,0.6-2.9-0.2c-0.1-0.1-0.7-0.6-0.6-1.2c0.1-0.4,0.3-0.6,0.5-0.7
		c0.5-0.3,1.2-0.8,1.6-1.6c0.8-1.7-0.2-3.2-0.6-7.1c-0.3-3.3,0.2-3.8,0.5-4c0.8-0.5,2-0.1,2.7,0.2h0c0.9-0.1,1.9,0.3,2.3,1
		c0.5,0.9,0.3,1.8,0.2,1.9c-0.1,1.9-0.1,3.8-0.2,5.7c0,0.4,0.2,2.6-1.3,4.3C12,51,11.4,51.8,10.2,52.2z"/>
	<path id="XMLID_7_" d="M10.5,45.4l-1.8,0c-0.3,0.1-0.7,0.2-1.1,0.4C7.3,45.9,7.2,46,7,46.1c-0.1,0.1-1.3,0.8-1.1,1.4
		c0,0.1,0.1,0.3,0.5,0.5c0.3,0,0.7,0.1,1.1,0.1c0.8,0.1,1.6,0.1,2.3,0.1c0.2,0.1,0.5,0.2,0.7,0.4c0.8,0,1.6-0.7,1.6-1.5v0
		C12,46.1,11.4,45.4,10.5,45.4z"/>
	<path id="XMLID_8_" d="M18.1,46.8l11.5,0.3c0.4-0.1,1-0.2,1.7-0.4c1.2-0.2,1.3-0.2,1.3-0.2c0.3,0.4-1,2.3-3,3.3
		c-1.7,0.8-3.4,0.5-4.2,0.4c-3,0.3-5.6,0.3-7.4,0.3c-1.5,0-2.5-0.1-2.7-0.6C15,49,17.2,47.4,18.1,46.8z"/>
	<path id="XMLID_9_" d="M50,49.7c-0.7-0.2-1.7-0.4-2.9-0.5c-2.6-0.2-4.5,0.4-5.2,0.6c-1.9,0.5-4.9,0.8-9.4-0.1c-0.2,0-1.1-0.1-1.8-1
		c-0.5-0.6-0.7-1.4-0.7-2.2v0c-0.1-0.9,0-2.1,0.6-2.6c0.8-0.7,2.1,0.2,4,0.6c1.1,0.2,2.8,0.4,4.9-0.1c3.2-0.2,6.3-0.3,9.5-0.5
		c0.5,0,2,0,3.2,1.3c0.4,0.4,0.7,0.9,0.9,1.3c0.1,0.6,0.1,1.2,0.2,1.8c-0.2,0.3-0.5,0.7-1.1,1C51.1,49.9,50.3,49.8,50,49.7z"/>
	<path id="XMLID_10_" d="M50.7,47.2c-0.6-0.1-1.2-0.3-1.8-0.4c-0.3,0-1.5,0.1-2.5,1c-0.7,0.6-1,1.3-1.1,1.6v0
		c-0.6,0.8-0.6,1.7-0.1,2.2c0.4,0.4,1,0.3,1.1,0.3c1.1-0.1,2.2-0.3,3.3-0.4c1.1-0.1,2-0.3,2.6-0.5c1.4-0.4,1.7-0.7,1.9-0.9
		c0.5-0.6,0.4-1.4,0.4-1.7c0-0.3,0-0.9-0.2-1.5c-0.2-0.6-0.6-1-0.8-1.2c-0.1-0.1-0.3-0.3-0.5-0.5c-0.4-0.3-1-0.6-1-0.6
		c-0.9-0.4-2-0.6-2.1-0.5c0,0.1,0.1,0.1,0.1,0.2c0.9,0.9,2.5,2,2.4,2.4C52.3,46.9,52,47.1,50.7,47.2z"/>
</g>
</svg>
